<mxfile host="app.diagrams.net" agent="Mozilla/5.0 (Macintosh; Intel Mac OS X 10_15_7) AppleWebKit/605.1.15 (KHTML, like Gecko) Version/18.0 Safari/605.1.15" version="24.7.14">
  <diagram name="Pagina-1" id="ZruvVzZYXZNLJczQTUCi">
    <mxGraphModel grid="1" page="1" gridSize="10" guides="1" tooltips="1" connect="1" arrows="1" fold="1" pageScale="1" pageWidth="827" pageHeight="1169" math="0" shadow="0">
      <root>
        <mxCell id="0" />
        <mxCell id="1" parent="0" />
        <mxCell id="Ufk1-IEU64EVvcJwZceA-1" value="Ripasso 0: Creare 3 variabili (A, B, Prodotto), prendere in input i valori di A e B ed eseguire la prodotto tra A e B" style="text;html=1;align=center;verticalAlign=middle;whiteSpace=wrap;rounded=0;fontSize=28;" vertex="1" parent="1">
          <mxGeometry x="104" y="70" width="620" height="30" as="geometry" />
        </mxCell>
        <mxCell id="7_b1iN5cpfyyF13wHqI8-2" value="" style="edgeStyle=orthogonalEdgeStyle;rounded=0;orthogonalLoop=1;jettySize=auto;html=1;" edge="1" parent="1" source="Ufk1-IEU64EVvcJwZceA-2" target="7_b1iN5cpfyyF13wHqI8-1">
          <mxGeometry relative="1" as="geometry" />
        </mxCell>
        <mxCell id="Ufk1-IEU64EVvcJwZceA-2" value="" style="ellipse;whiteSpace=wrap;html=1;aspect=fixed;" vertex="1" parent="1">
          <mxGeometry x="374" y="160" width="80" height="80" as="geometry" />
        </mxCell>
        <mxCell id="Ufk1-IEU64EVvcJwZceA-8" value="" style="edgeStyle=orthogonalEdgeStyle;rounded=0;orthogonalLoop=1;jettySize=auto;html=1;" edge="1" parent="1">
          <mxGeometry relative="1" as="geometry">
            <mxPoint x="414" y="460" as="sourcePoint" />
          </mxGeometry>
        </mxCell>
        <mxCell id="Ufk1-IEU64EVvcJwZceA-10" value="" style="edgeStyle=orthogonalEdgeStyle;rounded=0;orthogonalLoop=1;jettySize=auto;html=1;" edge="1" parent="1">
          <mxGeometry relative="1" as="geometry">
            <mxPoint x="414" y="610" as="targetPoint" />
          </mxGeometry>
        </mxCell>
        <mxCell id="Ufk1-IEU64EVvcJwZceA-12" value="" style="edgeStyle=orthogonalEdgeStyle;rounded=0;orthogonalLoop=1;jettySize=auto;html=1;" edge="1" parent="1">
          <mxGeometry relative="1" as="geometry">
            <mxPoint x="414" y="710" as="targetPoint" />
          </mxGeometry>
        </mxCell>
        <mxCell id="7_b1iN5cpfyyF13wHqI8-4" value="" style="edgeStyle=orthogonalEdgeStyle;rounded=0;orthogonalLoop=1;jettySize=auto;html=1;" edge="1" parent="1" source="7_b1iN5cpfyyF13wHqI8-1" target="7_b1iN5cpfyyF13wHqI8-3">
          <mxGeometry relative="1" as="geometry" />
        </mxCell>
        <mxCell id="7_b1iN5cpfyyF13wHqI8-1" value="A, B, Prodotto" style="shape=hexagon;perimeter=hexagonPerimeter2;whiteSpace=wrap;html=1;fixedSize=1;" vertex="1" parent="1">
          <mxGeometry x="354" y="270" width="120" height="80" as="geometry" />
        </mxCell>
        <mxCell id="7_b1iN5cpfyyF13wHqI8-7" value="" style="edgeStyle=orthogonalEdgeStyle;rounded=0;orthogonalLoop=1;jettySize=auto;html=1;" edge="1" parent="1" source="7_b1iN5cpfyyF13wHqI8-3" target="7_b1iN5cpfyyF13wHqI8-6">
          <mxGeometry relative="1" as="geometry" />
        </mxCell>
        <mxCell id="7_b1iN5cpfyyF13wHqI8-3" value="A" style="shape=parallelogram;perimeter=parallelogramPerimeter;whiteSpace=wrap;html=1;fixedSize=1;fillColor=#d5e8d4;strokeColor=#82b366;" vertex="1" parent="1">
          <mxGeometry x="354" y="390" width="120" height="60" as="geometry" />
        </mxCell>
        <mxCell id="7_b1iN5cpfyyF13wHqI8-5" value="i" style="text;html=1;align=center;verticalAlign=middle;resizable=0;points=[];autosize=1;strokeColor=none;fillColor=none;" vertex="1" parent="1">
          <mxGeometry x="445" y="368" width="30" height="30" as="geometry" />
        </mxCell>
        <mxCell id="7_b1iN5cpfyyF13wHqI8-10" value="" style="edgeStyle=orthogonalEdgeStyle;rounded=0;orthogonalLoop=1;jettySize=auto;html=1;" edge="1" parent="1" source="7_b1iN5cpfyyF13wHqI8-6" target="7_b1iN5cpfyyF13wHqI8-9">
          <mxGeometry relative="1" as="geometry" />
        </mxCell>
        <mxCell id="7_b1iN5cpfyyF13wHqI8-6" value="B" style="shape=parallelogram;perimeter=parallelogramPerimeter;whiteSpace=wrap;html=1;fixedSize=1;fillColor=#d5e8d4;strokeColor=#82b366;" vertex="1" parent="1">
          <mxGeometry x="354" y="490" width="120" height="60" as="geometry" />
        </mxCell>
        <mxCell id="7_b1iN5cpfyyF13wHqI8-8" value="i" style="text;html=1;align=center;verticalAlign=middle;resizable=0;points=[];autosize=1;strokeColor=none;fillColor=none;" vertex="1" parent="1">
          <mxGeometry x="455" y="468" width="30" height="30" as="geometry" />
        </mxCell>
        <mxCell id="7_b1iN5cpfyyF13wHqI8-12" value="" style="edgeStyle=orthogonalEdgeStyle;rounded=0;orthogonalLoop=1;jettySize=auto;html=1;" edge="1" parent="1" source="7_b1iN5cpfyyF13wHqI8-9" target="7_b1iN5cpfyyF13wHqI8-11">
          <mxGeometry relative="1" as="geometry" />
        </mxCell>
        <mxCell id="7_b1iN5cpfyyF13wHqI8-9" value="Prodotto = A * B" style="whiteSpace=wrap;html=1;" vertex="1" parent="1">
          <mxGeometry x="354" y="585" width="120" height="60" as="geometry" />
        </mxCell>
        <mxCell id="7_b1iN5cpfyyF13wHqI8-15" value="" style="edgeStyle=orthogonalEdgeStyle;rounded=0;orthogonalLoop=1;jettySize=auto;html=1;" edge="1" parent="1" source="7_b1iN5cpfyyF13wHqI8-11" target="7_b1iN5cpfyyF13wHqI8-14">
          <mxGeometry relative="1" as="geometry" />
        </mxCell>
        <mxCell id="7_b1iN5cpfyyF13wHqI8-11" value="Prodotto" style="shape=parallelogram;perimeter=parallelogramPerimeter;whiteSpace=wrap;html=1;fixedSize=1;fillColor=#f8cecc;strokeColor=#b85450;" vertex="1" parent="1">
          <mxGeometry x="354" y="690" width="120" height="60" as="geometry" />
        </mxCell>
        <mxCell id="7_b1iN5cpfyyF13wHqI8-13" value="o" style="text;html=1;align=center;verticalAlign=middle;resizable=0;points=[];autosize=1;strokeColor=none;fillColor=none;" vertex="1" parent="1">
          <mxGeometry x="455" y="658" width="30" height="30" as="geometry" />
        </mxCell>
        <mxCell id="7_b1iN5cpfyyF13wHqI8-14" value="" style="ellipse;whiteSpace=wrap;html=1;fillColor=#330000;" vertex="1" parent="1">
          <mxGeometry x="374" y="790" width="80" height="80" as="geometry" />
        </mxCell>
      </root>
    </mxGraphModel>
  </diagram>
</mxfile>
